<?xml version="1.0" encoding="UTF-8"?>
<svg xmlns="http://www.w3.org/2000/svg" width="50" height="50" viewBox="0 0 50 50" fill="none">
  <g clip-path="url(#clip0_1203_16792)">
    <path d="M25.0067 0C11.1978 0 0 11.1978 0 25.0067C0 38.8156 11.1978 50.0135 25.0067 50.0135C38.8156 50.0135 50.0135 38.8156 50.0135 25.0067C50.0135 11.1978 38.8156 0 25.0067 0ZM31.1844 17.039H28.9502C27.1871 17.039 26.8506 17.8735 26.8506 19.0983V21.8035H31.0363L30.4845 26.0296H26.8371V36.891H22.463V26.0296H18.8156V21.8035H22.463V18.681C22.463 15.0606 24.6703 13.0956 27.9004 13.0956C29.4482 13.0956 30.7806 13.2167 31.1709 13.2571V17.039H31.1844Z" fill="white"></path>
  </g>
  <defs>
    <clipPath id="clip0_1203_16792">
      <rect width="50" height="50" fill="white"></rect>
    </clipPath>
  </defs>
</svg>
