<?xml version="1.0" encoding="UTF-8"?>
<svg xmlns="http://www.w3.org/2000/svg" width="100" height="100" viewBox="0 0 100 100" fill="none">
  <path d="M46.2899 27.1804C46.2899 38.6956 43.2689 46.4836 36.4906 46.4836C29.7124 46.4836 19.646 40.2882 20.8402 29.4736C22.3398 15.9116 31.4574 6 38.2302 6C45.003 6 46.2844 16.2947 46.2844 27.1804H46.2899Z" fill="#007041"></path>
  <path d="M20.8893 45.4273C25.8625 52.4655 26.7623 58.9784 21.2328 62.9134C15.7034 66.8485 9.25778 66.4928 5.56057 59.1863C0.925418 50.0246 0.838168 42.7565 5.16794 37.1576C11.2373 29.3148 16.1887 38.7776 20.8838 45.4273H20.8893Z" fill="#007041"></path>
  <path d="M54.7095 27.1804C54.7095 38.6956 57.7305 46.4836 64.5087 46.4836C71.2869 46.4836 81.3534 40.2882 80.1592 29.4736C78.6541 15.9116 69.5419 6 62.7637 6C55.9855 6 54.7095 16.2947 54.7095 27.1804Z" fill="#007041"></path>
  <path d="M80.1101 45.4273C75.1369 52.4655 74.2371 58.9784 79.7666 62.9134C85.296 66.8485 91.7416 66.4928 95.4388 59.1863C100.074 50.0246 100.161 42.7565 95.8314 37.1576C89.7621 29.3148 84.8107 38.7776 80.1156 45.4273H80.1101Z" fill="#007041"></path>
  <path d="M49.8507 46.719C40.1933 46.719 40.2533 53.4836 32.6734 60.697C24.6846 68.2989 14.8527 71.6812 14.8527 79.3544C14.8527 87.0275 21.6527 94 30.4431 94C35.1164 94 42.0582 88.5818 50.058 88.5818C57.0925 88.5818 65.234 94 69.3456 94C78.1361 94 85.2578 89.5779 85.2578 79.8579C85.2578 67.8228 75.7912 67.3795 68.2059 59.9964C60.3589 52.3507 59.5028 46.719 49.8398 46.719H49.8507Z" fill="#007041"></path>
</svg>
