<?xml version="1.0" encoding="UTF-8"?>
<svg xmlns="http://www.w3.org/2000/svg" width="100" height="101" viewBox="0 0 100 101" fill="none">
  <path d="M93.5711 68.6695C92.5715 64.9161 93.9925 59.6044 96.7366 56.8604L97.942 55.655C100.686 52.911 100.686 48.4225 97.942 45.6785L96.7366 44.4731C93.9925 41.7291 92.5715 36.4174 93.5711 32.664L94.0122 31.0176C95.0118 27.2642 92.7675 23.3833 89.0239 22.3739L87.3775 21.9329C83.6241 20.9333 79.7432 17.0427 78.7338 13.2892L78.2928 11.6428C77.2932 7.88941 73.4026 5.64519 69.6492 6.6546L68.0027 7.0956C64.2493 8.09521 58.9377 6.6742 56.1936 3.93017L54.9882 2.72476C52.2442 -0.0192575 47.7558 -0.0192575 45.0118 2.72476L43.8064 3.93017C41.0623 6.6742 35.7507 8.09521 31.9973 7.0956L30.3508 6.6546C26.5974 5.65499 22.7166 7.89921 21.7072 11.6428L21.2662 13.2892C20.2666 17.0427 16.3759 20.9235 12.6225 21.9329L10.9761 22.3739C7.22266 23.3735 4.97844 27.2642 5.98785 31.0176L6.42885 32.664C7.42846 36.4174 6.00745 41.7291 3.26343 44.4731L2.05802 45.6785C-0.686006 48.4225 -0.686006 52.911 2.05802 55.655L3.26343 56.8604C6.00745 59.6044 7.42846 64.9161 6.42885 68.6695L5.98785 70.3159C4.98824 74.0693 7.23246 77.9502 10.9761 78.9596L12.6225 79.4006C16.3759 80.4002 20.2568 84.2908 21.2662 88.0443L21.7072 89.6907C22.7068 93.4441 26.5974 95.6883 30.3508 94.6789L31.9973 94.2379C35.7507 93.2383 41.0623 94.6593 43.8064 97.4033L45.0118 98.6087C47.7558 101.353 52.2442 101.353 54.9882 98.6087L56.1936 97.4033C58.9377 94.6593 64.2493 93.2383 68.0027 94.2379L69.6492 94.6789C73.4026 95.6785 77.2834 93.4343 78.2928 89.6907L78.7338 88.0443C79.7334 84.2908 83.6241 80.41 87.3775 79.4006L89.0239 78.9596C92.7773 77.96 95.0216 74.0693 94.0122 70.3159L93.5711 68.6695Z" fill="#007041"></path>
  <path d="M28 53.7176L44.6045 70.6667L72 30.6667" stroke="#F4F4EE" stroke-width="5" stroke-miterlimit="10" stroke-linecap="round"></path>
</svg>
