<?xml version="1.0" encoding="UTF-8"?>
<svg xmlns="http://www.w3.org/2000/svg" width="25" height="26" viewBox="0 0 25 26" fill="none">
  <path d="M9.0127 11.1742L12.1756 9.34839L15.3385 11.1742V14.8258L12.1756 16.6516L9.0127 14.8258V11.1742Z" stroke="#007041" stroke-width="2" stroke-miterlimit="10"></path>
  <path d="M12.1758 2.04529V9.34846" stroke="#007041" stroke-width="2" stroke-miterlimit="10"></path>
  <path d="M15.3082 4.13232L12.1758 6.21943L9.04688 4.13232" stroke="#007041" stroke-width="2" stroke-miterlimit="10"></path>
  <path d="M13.7403 1L12.1758 2.04525L10.6113 1" stroke="#007041" stroke-width="2" stroke-miterlimit="10"></path>
  <path d="M12.1758 23.9582V16.6516" stroke="#007041" stroke-width="2" stroke-miterlimit="10"></path>
  <path d="M9.04688 21.871L12.1758 19.7839L15.3082 21.871" stroke="#007041" stroke-width="2" stroke-miterlimit="10"></path>
  <path d="M10.6113 25L12.1758 23.9581L13.7403 25" stroke="#007041" stroke-width="2" stroke-miterlimit="10"></path>
  <path d="M2.68652 7.52271L9.01232 11.1743" stroke="#007041" stroke-width="2" stroke-miterlimit="10"></path>
  <path d="M6.05962 5.85645L6.30057 9.60984L2.93066 11.2761" stroke="#007041" stroke-width="2" stroke-miterlimit="10"></path>
  <path d="M2.56787 5.646L2.68665 7.52269L1 8.35754" stroke="#007041" stroke-width="2" stroke-miterlimit="10"></path>
  <path d="M21.6637 18.4774L15.3379 14.8258" stroke="#007041" stroke-width="2" stroke-miterlimit="10"></path>
  <path d="M18.2908 20.1471L18.0498 16.3903L21.4231 14.724" stroke="#007041" stroke-width="2" stroke-miterlimit="10"></path>
  <path d="M21.7862 20.3575L21.6641 18.4774L23.3507 17.646" stroke="#007041" stroke-width="2" stroke-miterlimit="10"></path>
  <path d="M2.68652 18.4774L9.01232 14.8258" stroke="#007041" stroke-width="2" stroke-miterlimit="10"></path>
  <path d="M2.93066 14.724L6.30057 16.3903L6.05962 20.1471" stroke="#007041" stroke-width="2" stroke-miterlimit="10"></path>
  <path d="M1 17.646L2.68665 18.4774L2.56787 20.3575" stroke="#007041" stroke-width="2" stroke-miterlimit="10"></path>
  <path d="M21.6637 7.52271L15.3379 11.1743" stroke="#007041" stroke-width="2" stroke-miterlimit="10"></path>
  <path d="M21.4231 11.2761L18.0498 9.60984L18.2908 5.85645" stroke="#007041" stroke-width="2" stroke-miterlimit="10"></path>
  <path d="M23.3507 8.35754L21.6641 7.52269L21.7862 5.646" stroke="#007041" stroke-width="2" stroke-miterlimit="10"></path>
</svg>
