<?xml version="1.0" encoding="UTF-8"?>
<svg xmlns="http://www.w3.org/2000/svg" width="100" height="100" viewBox="0 0 100 100" fill="none">
  <path d="M44.29 30C43.45 30 42.61 30.04 41.79 30.12V3H46.79V30.12C45.97 30.04 45.13 30 44.29 30Z" fill="#007749"></path>
  <path d="M65.96 40.9L86.02 29.33L88.52 33.66L68.57 45.18C67.83 43.67 66.96 42.24 65.97 40.91L65.96 40.9Z" fill="#007749"></path>
  <path d="M55.56 32.47L68.04 10.86L72.37 13.36L59.89 34.98C58.53 34.02 57.09 33.18 55.56 32.48V32.47Z" fill="#007749"></path>
  <path d="M20.2 44.81L13.05 40.68L15.55 36.35L22.86 40.57C21.85 41.89 20.95 43.31 20.19 44.8L20.2 44.81Z" fill="#007749"></path>
  <path d="M29.19 34.61L25.37 27.99L29.7 25.49L33.58 32.21C32.04 32.88 30.57 33.68 29.19 34.61Z" fill="#007749"></path>
  <path d="M71.29 57C71.29 55.78 71.2 54.57 71.04 53.39H91.53V58.39H71.25C71.27 57.93 71.29 57.46 71.29 57Z" fill="#007749"></path>
  <path d="M32.72 81.4L26.74 91.75L22.41 89.25L28.42 78.84C29.76 79.82 31.2 80.68 32.72 81.4Z" fill="#007749"></path>
  <path d="M21.95 72.17L12.49 77.63L9.99 73.3L19.53 67.79C20.2 69.33 21.01 70.8 21.94 72.17H21.95Z" fill="#007749"></path>
  <path d="M69.1 67.64L84.72 76.66L82.22 80.99L66.71 72.04C67.64 70.66 68.44 69.19 69.1 67.65V67.64Z" fill="#007749"></path>
  <path d="M17.46 53.97C17.35 54.97 17.29 55.98 17.29 57C17.29 57.66 17.32 58.32 17.37 58.97H8V53.97H17.46Z" fill="#007749"></path>
  <path d="M60.46 78.62L68.56 92.65L64.23 95.15L56.19 81.23C57.7 80.49 59.12 79.62 60.46 78.62Z" fill="#007749"></path>
  <path d="M44.29 83.9999C45.33 83.9999 46.36 83.9399 47.37 83.8199V97.6299H42.37V83.9199C43.01 83.9599 43.65 83.9999 44.29 83.9999Z" fill="#007749"></path>
  <path d="M44.29 77.5C55.59 77.5 64.79 68.3 64.79 57C64.79 45.7 55.59 36.5 44.29 36.5C32.99 36.5 23.79 45.7 23.79 57C23.79 68.3 32.99 77.5 44.29 77.5ZM44.29 41.5C52.84 41.5 59.79 48.45 59.79 57C59.79 65.55 52.84 72.5 44.29 72.5C35.74 72.5 28.79 65.55 28.79 57C28.79 48.45 35.74 41.5 44.29 41.5Z" fill="#007749"></path>
  <circle cx="19.5" cy="19.5" r="19.5" transform="matrix(-1 0 0 1 63.53 38)" fill="#007749"></circle>
</svg>
