<?xml version="1.0" encoding="UTF-8"?>
<svg xmlns="http://www.w3.org/2000/svg" width="50" height="50" viewBox="0 0 50 50" fill="none">
  <g clip-path="url(#clip0_1203_16796)">
    <path d="M25.0068 21.1035C22.8534 21.1035 21.1172 22.8532 21.1172 24.9932C21.1172 27.1331 22.8669 28.8828 25.0068 28.8828C27.1468 28.8828 28.8965 27.1331 28.8965 24.9932C28.8965 22.8532 27.1468 21.1035 25.0068 21.1035Z" fill="white"></path>
    <path d="M34.1046 18.1159C33.8893 17.564 33.6336 17.1872 33.2298 16.77C32.826 16.3527 32.4357 16.1105 31.8839 15.8951C31.4667 15.7336 30.8476 15.5452 29.717 15.4914C28.4788 15.4375 28.1154 15.4241 24.9929 15.4241C21.8705 15.4241 21.5071 15.4241 20.2688 15.4914C19.1248 15.5452 18.5057 15.7336 18.1019 15.8951C17.5501 16.1105 17.1733 16.3662 16.7561 16.77C16.3388 17.1737 16.0966 17.564 15.8812 18.1159C15.7197 18.5331 15.5313 19.1522 15.4775 20.2828C15.4236 21.521 15.4102 21.8844 15.4102 25.0068C15.4102 28.1293 15.4102 28.4927 15.4775 29.7309C15.5313 30.8749 15.7197 31.4941 15.8812 31.8978C16.0966 32.4496 16.3523 32.8265 16.7561 33.2437C17.1598 33.6609 17.5501 33.9032 18.1019 34.1186C18.5192 34.2801 19.1383 34.4685 20.2688 34.5223C21.5071 34.5762 21.8705 34.5896 24.9929 34.5896C28.1154 34.5896 28.4788 34.5896 29.717 34.5223C30.861 34.4685 31.4801 34.2801 31.8839 34.1186C32.4357 33.9032 32.8126 33.6475 33.2298 33.2437C33.647 32.84 33.8893 32.4496 34.1046 31.8978C34.2661 31.4806 34.4546 30.8615 34.5084 29.7309C34.5622 28.4927 34.5757 28.1293 34.5757 25.0068C34.5757 21.8844 34.5757 21.521 34.5084 20.2828C34.4546 19.1387 34.2661 18.5196 34.1046 18.1159V18.1159ZM24.9929 31.0095C21.682 31.0095 18.9902 28.3177 18.9902 25.0068C18.9902 21.6959 21.682 19.0042 24.9929 19.0042C28.3038 19.0042 30.9956 21.6959 30.9956 25.0068C30.9956 28.3177 28.3038 31.0095 24.9929 31.0095ZM31.2244 20.1751C30.4438 20.1751 29.8247 19.5425 29.8247 18.7754C29.8247 18.0082 30.4573 17.3756 31.2244 17.3756C31.9916 17.3756 32.6242 18.0082 32.6242 18.7754C32.6242 19.5425 31.9916 20.1751 31.2244 20.1751Z" fill="white"></path>
    <path d="M25.0067 0C11.1978 0 0 11.1978 0 25.0067C0 38.8156 11.1978 50.0135 25.0067 50.0135C38.8156 50.0135 50.0135 38.8156 50.0135 25.0067C50.0135 11.1978 38.8156 0 25.0067 0ZM36.6218 29.825C36.568 31.0633 36.3661 31.9246 36.0834 32.6649C35.7873 33.432 35.3836 34.0781 34.7376 34.7376C34.0915 35.3836 33.432 35.7873 32.6649 36.0834C31.9246 36.3661 31.0767 36.568 29.825 36.6218C28.5734 36.6756 28.183 36.6891 25.0067 36.6891C21.8304 36.6891 21.4401 36.6891 20.1884 36.6218C18.9502 36.568 18.0888 36.3661 17.3486 36.0834C16.5814 35.7873 15.9354 35.3836 15.2759 34.7376C14.6299 34.0915 14.2261 33.432 13.93 32.6649C13.6474 31.9246 13.4455 31.0767 13.3917 29.825C13.3378 28.5734 13.3244 28.183 13.3244 25.0067C13.3244 21.8304 13.3244 21.4401 13.3917 20.1884C13.4455 18.9502 13.6474 18.0888 13.93 17.3486C14.2261 16.5814 14.6299 15.9354 15.2759 15.2759C15.9219 14.6299 16.5814 14.2261 17.3486 13.93C18.0888 13.6474 18.9367 13.4455 20.1884 13.3917C21.4401 13.3378 21.8304 13.3244 25.0067 13.3244C28.183 13.3244 28.5734 13.3378 29.825 13.3917C31.0633 13.4455 31.9246 13.6474 32.6649 13.93C33.432 14.2261 34.0781 14.6299 34.7376 15.2759C35.3836 15.9219 35.7873 16.5814 36.0834 17.3486C36.3661 18.0888 36.568 18.9367 36.6218 20.1884C36.6756 21.4401 36.6891 21.8304 36.6891 25.0067C36.6891 28.183 36.6891 28.5734 36.6218 29.825V29.825Z" fill="white"></path>
  </g>
  <defs>
    <clipPath id="clip0_1203_16796">
      <rect width="50" height="50" fill="white"></rect>
    </clipPath>
  </defs>
</svg>
