<?xml version="1.0" encoding="UTF-8"?>
<svg xmlns="http://www.w3.org/2000/svg" width="130" height="43" viewBox="0 0 130 43" fill="none">
  <g clip-path="url(#clip0_1003_15019)">
    <path d="M55.6323 22.6287C55.6323 28.8152 50.8159 33.3739 44.9051 33.3739C38.9942 33.3739 34.1778 28.8152 34.1778 22.6287C34.1778 16.4422 38.9942 11.8835 44.9051 11.8835C50.8159 11.8835 55.6323 16.3986 55.6323 22.6287ZM50.9364 22.6287C50.9364 18.7628 48.1449 16.1177 44.9051 16.1177C41.6652 16.1177 38.8737 18.7628 38.8737 22.6287C38.8737 26.4946 41.6652 29.1397 44.9051 29.1397C48.1449 29.1397 50.9364 26.451 50.9364 22.6287Z" fill="#007749"></path>
    <path d="M78.7743 22.6287C78.7743 28.8152 73.9579 33.3739 68.047 33.3739C62.1362 33.3739 57.3198 28.8152 57.3198 22.6287C57.3198 16.4422 62.1362 11.8835 68.047 11.8835C73.9579 11.8835 78.7743 16.3986 78.7743 22.6287ZM74.0784 22.6287C74.0784 18.7628 71.2869 16.1177 68.047 16.1177C64.8072 16.1177 62.0157 18.7628 62.0157 22.6287C62.0157 26.4946 64.8072 29.1397 68.047 29.1397C71.2869 29.1397 74.0784 26.451 74.0784 22.6287Z" fill="#007749"></path>
    <path d="M100.952 12.5327V31.8236C100.952 39.7589 96.2947 42.9999 90.7888 42.9999C85.606 42.9999 82.4867 39.5167 81.3103 36.6681L85.3987 34.958C86.1267 36.7069 87.9106 38.7707 90.784 38.7707C94.3083 38.7707 96.4924 36.5858 96.4924 32.4728V30.9274H96.3284C95.2774 32.2305 93.2525 33.369 90.6972 33.369C85.3505 33.369 80.4521 28.6892 80.4521 22.6675C80.4521 16.6457 85.3505 11.8835 90.6972 11.8835C93.2477 11.8835 95.2726 13.022 96.3284 14.2864H96.4924V12.5376H100.952V12.5327ZM96.825 22.6626C96.825 18.879 94.3132 16.1128 91.1167 16.1128C87.9202 16.1128 85.1624 18.879 85.1624 22.6626C85.1624 26.4462 87.8768 29.1349 91.1167 29.1349C94.3566 29.1349 96.825 26.4074 96.825 22.6626Z" fill="#007749"></path>
    <path d="M108.304 1.22559V32.715H103.724V1.22559H108.304Z" fill="#007749"></path>
    <path d="M126.153 26.1652L129.797 28.6068C128.621 30.3557 125.786 33.369 120.888 33.369C114.813 33.369 110.276 28.6504 110.276 22.6238C110.276 16.2339 114.852 11.8787 120.362 11.8787C125.873 11.8787 128.626 16.3162 129.513 18.7143L130 19.9351L115.705 25.8842C116.799 28.04 118.501 29.1397 120.888 29.1397C123.274 29.1397 124.938 27.9576 126.153 26.1652ZM114.934 22.2992L124.489 18.3122C123.964 16.9703 122.382 16.0353 120.521 16.0353C118.135 16.0353 114.813 18.1523 114.934 22.2992Z" fill="#007749"></path>
    <path d="M16.8406 19.8335V15.2748H32.1288C32.2782 16.0693 32.3554 17.0091 32.3554 18.0265C32.3554 21.4467 31.4249 25.676 28.426 28.6893C25.5092 31.7413 21.7824 33.3691 16.8454 33.3691C7.6947 33.3691 0 25.8794 0 16.6845C0 7.48963 7.6947 0 16.8454 0C21.9077 0 25.514 1.99594 28.2236 4.59745L25.0223 7.81422C23.0793 5.98299 20.4469 4.5587 16.8406 4.5587C10.1584 4.5587 4.93213 9.97003 4.93213 16.6845C4.93213 23.3991 10.1584 28.8104 16.8406 28.8104C21.1749 28.8104 23.6434 27.0615 25.2247 25.4725C26.5072 24.1839 27.3509 22.3429 27.6836 19.8286H16.8406V19.8335Z" fill="#007749"></path>
  </g>
  <defs>
    <clipPath id="clip0_1003_15019">
      <rect width="130" height="43" fill="white"></rect>
    </clipPath>
  </defs>
</svg>
