<?xml version="1.0" encoding="UTF-8"?>
<svg xmlns="http://www.w3.org/2000/svg" width="275" height="128" viewBox="0 0 275 128" fill="none">
  <g clip-path="url(#clip0_1976_11040)">
    <g clip-path="url(#clip1_1976_11040)">
      <path d="M171.161 5.36902C170.694 5.83117 170.132 6.06224 169.473 6.06224C168.814 6.06224 168.251 5.83117 167.798 5.36902C167.331 4.90688 167.111 4.34959 167.111 3.69715C167.111 3.04472 167.345 2.50102 167.812 2.03887C168.278 1.57673 168.827 1.35925 169.486 1.35925C170.145 1.35925 170.708 1.59032 171.175 2.03887C171.642 2.50102 171.875 3.04472 171.875 3.69715C171.875 4.34959 171.642 4.90688 171.175 5.36902M168.045 2.26995C167.647 2.66413 167.455 3.13986 167.455 3.69715C167.455 4.25444 167.647 4.74377 168.045 5.13795C168.443 5.53213 168.923 5.73602 169.486 5.73602C170.049 5.73602 170.53 5.53213 170.928 5.13795C171.326 4.74377 171.518 4.25444 171.518 3.69715C171.518 3.13986 171.312 2.66413 170.928 2.26995C170.53 1.87577 170.049 1.67188 169.486 1.67188C168.923 1.67188 168.443 1.87577 168.045 2.26995ZM169.445 2.40587C169.775 2.40587 170.008 2.43306 170.159 2.50102C170.434 2.60976 170.557 2.82724 170.557 3.15345C170.557 3.38453 170.475 3.54764 170.31 3.66997C170.214 3.72434 170.09 3.76511 169.926 3.7923C170.132 3.81948 170.283 3.91463 170.379 4.05056C170.475 4.18648 170.516 4.3224 170.516 4.44474V4.63503C170.516 4.63503 170.516 4.75736 170.516 4.82533C170.516 4.89329 170.53 4.93406 170.543 4.96125V4.98843H170.132C170.132 4.98843 170.132 4.97484 170.132 4.96125C170.132 4.96125 170.132 4.94766 170.132 4.93406V4.85251V4.64862C170.132 4.34959 170.049 4.1593 169.884 4.06415C169.788 4.00978 169.61 3.98259 169.377 3.98259H169.02V5.00203H168.553V2.39228H169.473L169.445 2.40587ZM169.939 2.81364C169.83 2.74568 169.637 2.7185 169.39 2.7185H168.992V3.65638H169.404C169.596 3.65638 169.747 3.64278 169.843 3.60201C170.022 3.53404 170.118 3.39812 170.118 3.19423C170.118 2.99035 170.063 2.88161 169.939 2.81364Z" fill="#00B140"></path>
      <path d="M155.813 41.2802H157.749C161.002 41.2802 163.624 38.6705 163.624 35.4627V6.97292C163.624 3.00393 164.558 0.965063 164.558 0.965063H159.355C157.076 0.965063 155.237 2.78645 155.237 5.0428V28.014H155.127L138.131 0.965063H136.457C132.476 0.965063 129.236 4.15929 129.236 8.11469V38.8472C129.236 36.5908 127.437 33.8316 124.349 33.8316H108.067V23.9499H122.591C124.87 23.9499 126.71 22.1285 126.71 19.8721V17.0585H108.067V8.41372H123.333C125.612 8.41372 127.451 6.59233 127.451 4.33599V0.965063H99.1164V38.8472C99.1164 36.5908 97.0572 33.8316 94.2292 33.8316H77.9615V23.9499H92.321C94.5999 23.9499 96.4394 22.1285 96.4394 19.8721V17.0585H77.9615V8.41372H92.321C94.5999 8.41372 96.4394 6.59233 96.4394 4.33599V0.965063H68.9971V9.71859C67.8714 5.36901 63.9864 0.965063 58.2343 0.965063H42.5157C39.5093 0.965063 37.052 3.37093 37.052 6.34767V18.7983H25.2047C22.7199 18.7983 20.7019 20.9867 20.7019 23.4606V25.5402H29.8036C29.8036 31.2626 25.8362 34.7966 20.0155 34.7966C11.9708 34.7966 8.95068 28.014 8.95068 21.2994C8.95068 14.2313 11.9708 7.46225 20.0155 7.46225C24.23 7.46225 27.6071 9.77296 28.623 14.2313C31.9177 14.2313 34.5946 11.2545 34.828 7.47584C31.7118 2.62334 25.9872 0 20.0155 0C7.41314 0 0 9.31082 0 21.2994C0 33.2879 7.26213 42.2453 19.4801 42.2453C24.4908 42.2453 30.0919 38.9287 31.1215 35.5578H31.2587V36.387C31.396 38.8744 33.3042 40.8997 35.7615 41.2259C32.9061 41.5793 30.7096 43.9851 30.7096 46.9075V82.0304H47.4578C58.0559 82.0304 64.2747 74.5953 65.2493 66.1V82.0304H69.9306C72.2095 82.0304 74.049 80.1954 74.049 77.9526V66.0729H81.8877C86.3219 66.0729 88.4223 68.2205 88.5596 72.5564C88.6145 74.5409 88.7106 76.5118 88.9165 78.3332C89.3832 80.4401 91.264 82.0168 93.5428 82.0304H99.0615C98.0182 80.0595 97.6475 77.3682 97.524 72.7331C97.4141 68.9001 95.3687 64.2379 91.4836 62.8107V62.7019C94.1057 61.8184 96.0688 60.1058 97.2631 57.8902C97.0847 59.1543 97.0023 60.4456 97.0023 61.7912C97.0023 71.4555 101.903 79.5294 110.483 82.1391H110.469C112.954 82.8187 114.986 83.8382 116.675 85.3605C118.363 83.8518 120.395 82.8187 122.88 82.1391H122.866C129.002 80.2769 134.864 74.5409 135.386 66.3583V82.0576H140.136C142.415 82.0576 144.254 80.2226 144.254 77.9798V67.4049H152.793C163.075 67.4049 166.988 60.9349 166.988 54.3018C166.988 48.1308 163.968 41.9191 155.854 41.2938M63.3549 22.1965C66.732 20.9595 68.3793 18.1595 68.9971 15.0468V36.0471H68.4342C68.4342 29.849 67.6792 23.9771 63.3549 22.3188V22.21V22.1965ZM45.8379 7.85643H55.4613C59.3738 7.85643 61.5016 9.55549 61.5016 13.4429C61.5016 17.3304 59.3738 19.2061 55.4613 19.2061H45.8379V7.84284V7.85643ZM46.8401 74.4866H39.5093V48.7425H45.2613C53.7041 48.7425 56.8066 54.5601 56.8066 62.2398C56.8066 71.2788 51.9332 74.4866 46.8263 74.4866M65.2219 46.9619V57.8902C64.0138 49.1095 57.9049 41.1851 47.4304 41.1851H42.5981C44.4376 40.7773 45.8105 39.1598 45.8105 37.2025V25.5266H53.251C58.0284 25.5266 59.4698 27.2936 59.9091 31.6296C60.0464 32.9617 60.1837 34.4025 60.3073 35.8161C60.8289 38.9152 63.5333 41.2802 66.8006 41.2802H69.9718C67.2674 41.7832 65.2219 44.1347 65.2219 46.9483M84.3313 59.6572H74.0216V48.158H84.3313C88.2575 48.158 90.3854 49.8707 90.3854 53.8261C90.3854 57.7815 88.2575 59.6572 84.3313 59.6572ZM98.5124 52.6571C98.5124 52.5892 98.5124 52.5212 98.5124 52.4396C98.5124 46.7444 94.0096 41.987 87.7908 41.2666H109.879C104.415 43.1152 100.517 47.2473 98.5124 52.6435M116.62 76.1041C108.712 76.1041 105.747 68.5603 105.747 61.7505C105.747 54.6008 108.712 47.7366 116.62 47.7366C124.527 47.7366 127.492 54.6008 127.492 61.7505C127.492 68.9001 124.527 76.1041 116.62 76.1041ZM139.449 41.1579C137.171 41.1579 135.331 42.9929 135.331 45.2356V57.3465C134.466 49.7076 130.705 43.5366 123.388 41.2666H133.491C135.77 41.2666 137.61 39.4453 137.61 37.1889V14.2857H137.72L154.619 41.2123C154.317 41.2123 154.042 41.1715 153.727 41.1715H139.436L139.449 41.1579ZM150.542 60.3776H144.199V48.1308H150.542C154.756 48.1308 158.518 49.0415 158.518 54.2474C158.518 59.4533 154.756 60.364 150.542 60.364" fill="#00B140"></path>
      <path d="M116.633 86.3664C114.657 97.7976 101.862 103.167 101.862 113.592C101.862 123.379 109.769 128 116.633 128C123.497 128 131.405 123.379 131.405 113.592C131.405 103.167 118.61 97.784 116.633 86.3664Z" fill="#00B140"></path>
    </g>
    <g clip-path="url(#clip2_1976_11040)">
      <path d="M152.721 102.322H154.936V89.4346H152.721V87.8136H159.008V89.4346H156.793V102.322H159.008V103.943H152.721V102.322Z" fill="#00B140"></path>
      <path d="M162.227 102.917C162.02 102.525 161.952 102.038 161.952 101.471V95.0003H159.985V93.5008H161.952V90.9747L163.644 90.3127V93.5008H166.918V95.0003H163.644V101.228C163.644 101.566 163.699 101.822 163.823 102.038C164.029 102.403 164.414 102.579 165.074 102.579C165.735 102.579 166.477 102.282 167.069 101.944L166.849 103.565C166.299 103.862 165.556 104.159 164.579 104.159C163.451 104.159 162.653 103.741 162.227 102.93" fill="#00B140"></path>
      <path d="M167.605 93.4738C169.229 92.2985 169.779 90.9476 169.834 90.2587C169.132 90.1371 168.513 89.5292 168.513 88.8132C168.513 88.0027 169.242 87.3678 170.04 87.3678C170.907 87.3678 171.664 88.0297 171.664 89.286C171.664 90.664 170.714 92.7443 168.073 94.1358L167.619 93.4738H167.605Z" fill="#00B140"></path>
      <path d="M178.294 96.716C177.647 96.716 177.139 96.2702 177.139 95.6353C177.139 95.4596 177.166 95.2435 177.262 95.0544C176.891 94.8112 176.189 94.6896 175.391 94.6896C173.92 94.6896 173.067 95.4461 173.067 96.2161C173.067 97.1212 174.043 97.4455 175.79 97.8913C177.936 98.4046 179.738 98.999 179.738 101.025C179.738 103.052 177.771 104.159 175.488 104.159C173.933 104.159 172.365 103.673 171.636 102.957C171.265 102.592 171.058 102.174 171.058 101.66C171.058 101.052 171.512 100.512 172.131 100.512C172.805 100.512 173.273 100.958 173.273 101.593C173.273 101.809 173.19 102.011 173.094 102.228C173.438 102.498 174.318 102.822 175.46 102.822C176.905 102.822 178.06 102.214 178.06 101.201C178.06 100.188 177.056 99.8771 175.543 99.5123C172.97 98.8774 171.375 98.283 171.375 96.3512C171.375 94.7842 172.874 93.3387 175.419 93.3387C176.836 93.3387 178.115 93.7845 178.762 94.4195C179.133 94.7842 179.312 95.176 179.312 95.6218C179.312 96.2837 178.858 96.743 178.267 96.743" fill="#00B140"></path>
      <path d="M188.9 102.863L188.377 103.97H187.304V87.4623H185.599V85.9899H189.024V94.8652C189.918 94.0142 190.977 93.2982 192.669 93.2982C195.434 93.2982 197.732 95.4867 197.732 98.7153C197.732 101.701 195.531 104.132 192.394 104.132C191.046 104.132 189.822 103.619 188.9 102.863ZM195.971 98.7423C195.971 96.3647 194.444 94.7707 192.38 94.7707C191.005 94.7707 189.904 95.4596 189.038 96.3377V101.485C189.863 102.12 190.936 102.66 192.312 102.66C194.361 102.66 195.984 101.093 195.984 98.7423" fill="#00B140"></path>
      <path d="M201.088 99.2151C201.336 101.525 202.89 102.646 205.187 102.646C206.618 102.646 207.691 102.201 208.929 101.498L208.778 103.146C207.677 103.808 206.302 104.146 204.954 104.146C201.556 104.146 199.286 101.944 199.286 98.7558C199.286 95.8649 201.253 93.3117 204.5 93.3117C207.746 93.3117 209.369 95.6488 209.369 98.2425C209.369 98.6342 209.342 98.9585 209.273 99.2286H201.088V99.2151ZM201.116 97.8642H207.636C207.512 96.027 206.439 94.7437 204.417 94.7437C202.794 94.7437 201.377 95.8649 201.116 97.8642Z" fill="#00B140"></path>
      <path d="M210.552 101.147C210.552 99.2286 212.272 97.9858 214.652 97.9858C215.793 97.9858 217.169 98.283 217.719 98.4721V97.0267C217.719 96.4323 217.54 95.9189 217.238 95.5542C216.756 95.0409 215.986 94.7166 214.913 94.7166C214.06 94.7166 213.62 94.9328 213.262 95.1624C213.331 95.3381 213.414 95.5542 213.414 95.7703C213.414 96.3782 212.96 96.8511 212.286 96.8511C211.612 96.8511 211.185 96.3647 211.185 95.7163C211.185 94.514 212.588 93.2847 215.133 93.2847C216.701 93.2847 217.857 93.7575 218.558 94.514C219.109 95.1084 219.356 95.8919 219.356 96.77V102.457H221.076V103.93H217.761V102.606C216.88 103.443 215.518 104.132 214.06 104.132C212.01 104.132 210.539 102.93 210.539 101.133M217.705 101.309V99.5664C216.908 99.3502 215.862 99.1476 214.83 99.1476C213.138 99.1476 212.286 99.9311 212.286 101.012C212.286 102.011 213.056 102.754 214.514 102.754C215.793 102.754 216.894 102.12 217.705 101.309Z" fill="#00B140"></path>
      <path d="M223.703 102.741C223.373 102.174 223.208 101.444 223.208 100.607V94.9868H221.516V93.4873H224.941V100.282C224.941 100.863 225.038 101.336 225.244 101.674C225.574 102.282 226.124 102.552 226.991 102.552C228.312 102.552 229.495 101.714 230.485 100.715V94.9733H228.738V93.4738H232.205V102.444H233.91V103.916H230.54V101.984C229.536 103.133 228.091 104.119 226.564 104.119C225.161 104.119 224.24 103.606 223.717 102.714" fill="#00B140"></path>
      <path d="M236.689 102.917C236.496 102.525 236.414 102.038 236.414 101.471V95.0003H234.447V93.5008H236.414V90.9747L238.106 90.3127V93.5008H241.38V95.0003H238.106V101.228C238.106 101.566 238.161 101.822 238.285 102.038C238.491 102.403 238.89 102.579 239.537 102.579C240.183 102.579 240.94 102.282 241.531 101.944L241.311 103.565C240.761 103.862 240.018 104.159 239.041 104.159C237.913 104.159 237.115 103.741 236.689 102.93" fill="#00B140"></path>
      <path d="M242.811 102.471H244.613V94.9868H242.811V93.4873H246.332V102.457H248.134V103.93H242.811V102.457V102.471ZM243.856 89.4752C243.856 88.7457 244.503 88.0973 245.259 88.0973C246.016 88.0973 246.607 88.7322 246.607 89.4752C246.607 90.2182 245.961 90.8261 245.232 90.8261C244.503 90.8261 243.856 90.2047 243.856 89.4752Z" fill="#00B140"></path>
      <path d="M254.324 87.3137C253.994 87.3813 253.705 87.5299 253.499 87.8001C253.128 88.2459 252.921 88.9483 252.921 89.9885V93.5008H255.673V95.0003H252.921V102.484H254.999V103.957H249.482V102.484H251.202V95.0003H249.303V93.5008H251.202V90.3803C251.202 88.6917 251.504 87.5569 252.33 86.7464C252.949 86.152 253.705 85.7872 254.751 85.7872C255.906 85.7872 256.704 86.3276 256.704 87.1787C256.704 87.8676 256.223 88.3269 255.631 88.3269C254.93 88.3269 254.531 87.8811 254.338 87.3002" fill="#00B140"></path>
      <path d="M258.52 102.741C258.19 102.174 258.025 101.444 258.025 100.607V94.9868H256.333V93.4873H259.758V100.282C259.758 100.863 259.854 101.336 260.061 101.674C260.391 102.282 260.941 102.552 261.808 102.552C263.128 102.552 264.311 101.714 265.302 100.715V94.9733H263.555V93.4738H267.021V102.444H268.727V103.916H265.357V101.984C264.353 103.133 262.908 104.119 261.381 104.119C259.978 104.119 259.057 103.606 258.534 102.714" fill="#00B140"></path>
      <path d="M269.676 102.471H271.478V87.4623H269.676V85.9899H273.198V102.471H275V103.943H269.676V102.471Z" fill="#00B140"></path>
      <path d="M152.625 121.194C152.625 118.249 154.798 115.777 158.086 115.777C161.374 115.777 163.561 118.236 163.561 121.194C163.561 124.153 161.388 126.611 158.086 126.611C154.785 126.611 152.625 124.18 152.625 121.194ZM161.759 121.194C161.759 118.884 160.26 117.25 158.086 117.25C155.913 117.25 154.413 118.898 154.413 121.194C154.413 123.491 155.913 125.139 158.086 125.139C160.26 125.139 161.759 123.518 161.759 121.194Z" fill="#00B140"></path>
      <path d="M166.656 125.22C166.326 124.652 166.161 123.923 166.161 123.085V117.466H164.455V115.966H167.881V122.761C167.881 123.356 167.977 123.815 168.183 124.153C168.513 124.761 169.064 125.031 169.93 125.031C171.251 125.031 172.42 124.193 173.424 123.194V117.452H171.677V115.953H175.144V124.923H176.85V126.395H173.479V124.463C172.475 125.612 171.031 126.598 169.504 126.598C168.101 126.598 167.179 126.084 166.656 125.193" fill="#00B140"></path>
      <path d="M179.642 125.395C179.436 125.004 179.367 124.517 179.367 123.95V117.479H177.4V115.98H179.367V113.454L181.073 112.792V115.98H184.347V117.479H181.073V123.707C181.073 124.045 181.128 124.301 181.252 124.517C181.458 124.882 181.857 125.058 182.503 125.058C183.15 125.058 183.907 124.761 184.498 124.423L184.278 126.044C183.728 126.341 182.985 126.638 182.008 126.638C180.88 126.638 180.082 126.22 179.656 125.409" fill="#00B140"></path>
      <path d="M193.027 119.195C192.38 119.195 191.871 118.749 191.871 118.114C191.871 117.939 191.899 117.722 191.995 117.52C191.624 117.277 190.922 117.155 190.124 117.155C188.652 117.155 187.8 117.912 187.8 118.682C187.8 119.587 188.776 119.911 190.523 120.357C192.669 120.87 194.471 121.464 194.471 123.491C194.471 125.517 192.504 126.625 190.221 126.625C188.666 126.625 187.098 126.138 186.369 125.422C185.997 125.058 185.791 124.639 185.791 124.126C185.791 123.518 186.245 122.977 186.864 122.977C187.538 122.977 188.006 123.423 188.006 124.058C188.006 124.274 187.923 124.477 187.827 124.693C188.171 124.963 189.051 125.287 190.193 125.287C191.638 125.287 192.793 124.679 192.793 123.666C192.793 122.653 191.789 122.342 190.276 121.978C187.703 121.343 186.108 120.748 186.108 118.817C186.108 117.25 187.607 115.804 190.152 115.804C191.569 115.804 192.848 116.25 193.495 116.885C193.866 117.25 194.045 117.641 194.045 118.087C194.045 118.749 193.591 119.208 192.999 119.208" fill="#00B140"></path>
      <path d="M196.04 124.95H197.842V117.466H196.04V115.966H199.561V124.936H201.363V126.409H196.04V124.936V124.95ZM197.085 111.954C197.085 111.225 197.732 110.576 198.488 110.576C199.245 110.576 199.836 111.211 199.836 111.954C199.836 112.697 199.19 113.305 198.461 113.305C197.732 113.305 197.085 112.697 197.085 111.954Z" fill="#00B140"></path>
      <path d="M202.684 121.275C202.684 118.303 204.761 115.777 207.952 115.777C209.273 115.777 210.428 116.263 211.254 117.033V109.941H209.259V108.469H212.973V124.95H214.693V126.422H211.295V124.95C210.401 125.936 209.3 126.625 207.718 126.625C204.898 126.625 202.67 124.463 202.67 121.275M211.24 123.585V118.465C210.442 117.803 209.438 117.263 208.049 117.263C205.944 117.263 204.472 118.952 204.472 121.262C204.445 123.599 205.944 125.166 207.966 125.166C209.342 125.166 210.387 124.477 211.24 123.599" fill="#00B140"></path>
      <path d="M217.513 121.694C217.761 124.004 219.315 125.125 221.612 125.125C223.029 125.125 224.102 124.68 225.354 123.977L225.203 125.625C224.102 126.287 222.727 126.625 221.378 126.625C217.981 126.625 215.711 124.423 215.711 121.235C215.711 118.344 217.678 115.791 220.924 115.791C224.171 115.791 225.794 118.128 225.794 120.721C225.794 121.113 225.767 121.437 225.698 121.708H217.513V121.694ZM217.54 120.343H224.061C223.937 118.506 222.864 117.223 220.842 117.223C219.219 117.223 217.802 118.344 217.54 120.343Z" fill="#00B140"></path>
      <path d="M227.17 115.534C226.895 115.804 226.578 115.926 226.193 115.926C225.808 115.926 225.491 115.791 225.216 115.534C224.955 115.264 224.817 114.953 224.817 114.575C224.817 114.197 224.955 113.886 225.216 113.616C225.478 113.359 225.808 113.224 226.193 113.224C226.578 113.224 226.895 113.359 227.17 113.616C227.431 113.886 227.569 114.197 227.569 114.575C227.569 114.953 227.431 115.264 227.17 115.534ZM225.354 113.751C225.12 113.98 225.01 114.251 225.01 114.575C225.01 114.899 225.12 115.183 225.354 115.399C225.588 115.629 225.863 115.737 226.193 115.737C226.523 115.737 226.798 115.615 227.032 115.399C227.266 115.169 227.376 114.899 227.376 114.575C227.376 114.251 227.266 113.98 227.032 113.751C226.798 113.521 226.523 113.413 226.193 113.413C225.863 113.413 225.588 113.521 225.354 113.751ZM226.166 113.832C226.358 113.832 226.496 113.845 226.578 113.886C226.73 113.953 226.812 114.075 226.812 114.264C226.812 114.399 226.771 114.494 226.661 114.561C226.606 114.588 226.537 114.615 226.441 114.629C226.551 114.642 226.647 114.696 226.702 114.777C226.757 114.858 226.785 114.926 226.785 115.007V115.115C226.785 115.115 226.785 115.183 226.785 115.223C226.785 115.264 226.785 115.291 226.798 115.304L226.551 115.318C226.551 115.318 226.551 115.318 226.551 115.304V115.237V115.115C226.551 114.94 226.509 114.831 226.413 114.777C226.358 114.75 226.262 114.723 226.124 114.723H225.918V115.304H225.657V113.818H226.179L226.166 113.832ZM226.454 114.061C226.454 114.061 226.276 114.007 226.138 114.007H225.918V114.548H226.152C226.262 114.548 226.344 114.548 226.399 114.521C226.509 114.48 226.551 114.399 226.551 114.291C226.551 114.183 226.523 114.116 226.454 114.075" fill="#00B140"></path>
    </g>
  </g>
  <defs>
    <clipPath id="clip0_1976_11040">
      <rect width="275" height="128" fill="white"></rect>
    </clipPath>
    <clipPath id="clip1_1976_11040">
      <rect width="171.875" height="128" fill="white"></rect>
    </clipPath>
    <clipPath id="clip2_1976_11040">
      <rect width="122.375" height="40.8511" fill="white" transform="translate(152.625 85.7872)"></rect>
    </clipPath>
  </defs>
</svg>
