<?xml version="1.0" encoding="UTF-8"?>
<svg xmlns="http://www.w3.org/2000/svg" width="96" height="72" viewBox="0 0 96 72" fill="none">
  <g id="Logo Green Drop" clip-path="url(#clip0_2000_18107)">
    <path id="Vector" d="M95.6013 3.02002C95.3406 3.27998 95.0262 3.40995 94.6581 3.40995C94.2901 3.40995 93.9757 3.27998 93.7227 3.02002C93.462 2.76007 93.3393 2.44659 93.3393 2.07959C93.3393 1.7126 93.4696 1.40677 93.7304 1.14681C93.9911 0.886858 94.2978 0.764526 94.6658 0.764526C95.0339 0.764526 95.3482 0.894504 95.6089 1.14681C95.8697 1.40677 96 1.7126 96 2.07959C96 2.44659 95.8697 2.76007 95.6089 3.02002M93.8607 1.27679C93.6383 1.49852 93.531 1.76612 93.531 2.07959C93.531 2.39307 93.6383 2.66832 93.8607 2.89004C94.0831 3.11177 94.3514 3.22646 94.6658 3.22646C94.9802 3.22646 95.2486 3.11177 95.4709 2.89004C95.6933 2.66832 95.8006 2.39307 95.8006 2.07959C95.8006 1.76612 95.6856 1.49852 95.4709 1.27679C95.2486 1.05506 94.9802 0.940379 94.6658 0.940379C94.3514 0.940379 94.0831 1.05506 93.8607 1.27679ZM94.6428 1.35325C94.8268 1.35325 94.9572 1.36854 95.0415 1.40677C95.1949 1.46794 95.2639 1.59027 95.2639 1.77376C95.2639 1.90374 95.2179 1.99549 95.1259 2.0643C95.0722 2.09489 95.0032 2.11782 94.9112 2.13312C95.0262 2.14841 95.1105 2.20193 95.1642 2.27838C95.2179 2.35484 95.2409 2.4313 95.2409 2.50011V2.60715C95.2409 2.60715 95.2409 2.67596 95.2409 2.71419C95.2409 2.75242 95.2486 2.77536 95.2562 2.79065V2.80594H95.0262C95.0262 2.80594 95.0262 2.7983 95.0262 2.79065C95.0262 2.79065 95.0262 2.783 95.0262 2.77536V2.72948V2.6148C95.0262 2.44659 94.9802 2.33955 94.8882 2.28603C94.8345 2.25545 94.7348 2.24016 94.6045 2.24016H94.4051V2.81359H94.1444V1.3456H94.6581L94.6428 1.35325ZM94.9189 1.58262C94.8575 1.54439 94.7502 1.5291 94.6121 1.5291H94.3898V2.05666H94.6198C94.7272 2.05666 94.8115 2.04901 94.8652 2.02607C94.9649 1.98785 95.0185 1.91139 95.0185 1.7967C95.0185 1.68202 94.9879 1.62085 94.9189 1.58262Z" fill="#00B140"></path>
    <path id="Vector_2" d="M87.0288 23.2201H88.1099C89.9272 23.2201 91.3917 21.7522 91.3917 19.9478V3.92227C91.3917 1.68971 91.9131 0.542848 91.9131 0.542848H89.007C87.7342 0.542848 86.7067 1.56738 86.7067 2.83657V15.7579H86.6454L77.1527 0.542848H76.2173C73.9936 0.542848 72.184 2.3396 72.184 4.56451V21.8515C72.184 20.5824 71.1796 19.0303 69.4543 19.0303H60.3604V13.4718H68.4728C69.7457 13.4718 70.7732 12.4473 70.7732 11.1781V9.59541H60.3604V4.73272H68.8869C70.1597 4.73272 71.1872 3.70819 71.1872 2.43899V0.542848H55.361V21.8515C55.361 20.5824 54.2109 19.0303 52.6313 19.0303H43.545V13.4718H51.5655C52.8383 13.4718 53.8658 12.4473 53.8658 11.1781V9.59541H43.545V4.73272H51.5655C52.8383 4.73272 53.8658 3.70819 53.8658 2.43899V0.542848H38.538V5.46671C37.9093 3.02007 35.7393 0.542848 32.5265 0.542848H23.747C22.0677 0.542848 20.6952 1.89615 20.6952 3.57056V10.5741H14.078C12.6901 10.5741 11.5629 11.805 11.5629 13.1966V14.3664H16.6466C16.6466 17.5852 14.4307 19.5731 11.1796 19.5731C6.68626 19.5731 4.99936 15.7579 4.99936 11.9809C4.99936 8.0051 6.68626 4.19752 11.1796 4.19752C13.5335 4.19752 15.4198 5.49729 15.9872 8.0051C17.8275 8.0051 19.3227 6.33068 19.453 4.20516C17.7125 1.47563 14.515 0 11.1796 0C4.14057 0 0 5.23734 0 11.9809C0 18.7244 4.05623 23.763 10.8805 23.763C13.6792 23.763 16.8077 21.8974 17.3827 20.0013H17.4594V20.4677C17.5361 21.8668 18.6019 23.0061 19.9744 23.1896C18.3796 23.3883 17.1527 24.7416 17.1527 26.3855V46.1421H26.5073C32.4268 46.1421 35.9003 41.9599 36.4447 37.1813V46.1421H39.0594C40.3323 46.1421 41.3597 45.1099 41.3597 43.8484V37.166H45.738C48.2147 37.166 49.3879 38.374 49.4645 40.813C49.4952 41.9293 49.5489 43.0379 49.6639 44.0624C49.9246 45.2475 50.9751 46.1344 52.2479 46.1421H55.3304C54.7476 45.0335 54.5406 43.5196 54.4716 40.9124C54.4102 38.7563 53.2677 36.1338 51.0978 35.331V35.2698C52.5623 34.7729 53.6588 33.8095 54.3259 32.5632C54.2262 33.2743 54.1802 34.0006 54.1802 34.7576C54.1802 40.1937 56.9176 44.7353 61.7099 46.2033H61.7022C63.0901 46.5855 64.2249 47.159 65.1681 48.0153C66.1112 47.1666 67.246 46.5855 68.6339 46.2033H68.6262C72.0537 45.1558 75.3278 41.9293 75.6192 37.3265V46.1574H78.2722C79.5451 46.1574 80.5725 45.1252 80.5725 43.8637V37.9153H85.3419C91.085 37.9153 93.2703 34.2759 93.2703 30.5448C93.2703 27.0736 91.5834 23.5795 87.0518 23.2278M35.3866 12.4855C37.2728 11.7897 38.193 10.2147 38.538 8.46384V20.2765H38.2236C38.2236 16.7901 37.8019 13.4871 35.3866 12.5543V12.4932V12.4855ZM25.6026 4.41924H30.9776C33.1629 4.41924 34.3514 5.37496 34.3514 7.56164C34.3514 9.74833 33.1629 10.8034 30.9776 10.8034H25.6026V4.4116V4.41924ZM26.1623 41.8987H22.0677V27.4177H25.2805C29.9962 27.4177 31.7291 30.69 31.7291 35.0099C31.7291 40.0943 29.007 41.8987 26.1546 41.8987M36.4294 26.4161V32.5632C35.7546 27.6241 32.3425 23.1666 26.492 23.1666H23.793C24.8204 22.9372 25.5872 22.0274 25.5872 20.9264V14.3587H29.7431C32.4115 14.3587 33.2166 15.3527 33.462 17.7917C33.5387 18.5409 33.6153 19.3514 33.6843 20.1465C33.9757 21.8898 35.4863 23.2201 37.3112 23.2201H39.0824C37.5719 23.503 36.4294 24.8257 36.4294 26.4084M47.1029 33.5572H41.3444V27.0889H47.1029C49.2958 27.0889 50.4843 28.0522 50.4843 30.2772C50.4843 32.5021 49.2958 33.5572 47.1029 33.5572ZM55.0236 29.6196C55.0236 29.5814 55.0236 29.5432 55.0236 29.4973C55.0236 26.2937 52.5086 23.6177 49.0351 23.2125H61.3725C58.3208 24.2523 56.1431 26.5766 55.0236 29.612M65.1374 42.8085C60.7208 42.8085 59.0645 38.5652 59.0645 34.7346C59.0645 30.713 60.7208 26.8519 65.1374 26.8519C69.554 26.8519 71.2102 30.713 71.2102 34.7346C71.2102 38.7563 69.554 42.8085 65.1374 42.8085ZM77.8888 23.1513C76.616 23.1513 75.5885 24.1835 75.5885 25.445V32.2574C75.1054 27.9605 73.0045 24.4893 68.9176 23.2125H74.561C75.8339 23.2125 76.8613 22.188 76.8613 20.9188V8.03568H76.9227L86.3617 23.1819C86.193 23.1819 86.0396 23.159 85.8633 23.159H77.8811L77.8888 23.1513ZM84.0844 33.9624H80.5419V27.0736H84.0844C86.4383 27.0736 88.5393 27.5859 88.5393 30.5142C88.5393 33.4425 86.4383 33.9548 84.0844 33.9548" fill="#00B140"></path>
    <path id="Vector_3" d="M65.145 48.5811C64.0409 55.0111 56.8946 58.0312 56.8946 63.8955C56.8946 69.4004 61.3112 72 65.145 72C68.9789 72 73.3955 69.4004 73.3955 63.8955C73.3955 58.0312 66.2492 55.0035 65.145 48.5811Z" fill="#00B140"></path>
  </g>
  <defs>
    <clipPath id="clip0_2000_18107">
      <rect width="96" height="72" fill="white"></rect>
    </clipPath>
  </defs>
</svg>
