<?xml version="1.0" encoding="UTF-8"?>
<svg xmlns="http://www.w3.org/2000/svg" width="232" height="233" viewBox="0 0 232 233" fill="none">
  <path d="M189.18 47.6784C182.915 33.4939 172.663 21.4359 159.671 12.9712C146.679 4.50647 131.507 0 116 0C100.494 0 85.3217 4.50647 72.3295 12.9712C59.3373 21.4359 49.0852 33.4939 42.8203 47.6784C30.0385 53.9184 19.2558 63.6073 11.6893 75.6514C4.12292 87.6955 0.0741943 101.615 0.000272474 115.838C-0.109728 156.838 33.1003 190.988 74.0003 192.028C84.2565 192.306 94.4624 190.499 104 186.718V220.048C104 223.231 105.265 226.283 107.515 228.534C109.765 230.784 112.818 232.048 116 232.048C119.183 232.048 122.235 230.784 124.486 228.534C126.736 226.283 128 223.231 128 220.048V186.718C136.913 190.25 146.414 192.059 156 192.048H158C198.94 191.048 232.15 156.828 232 115.858C231.93 101.632 227.883 87.7078 220.316 75.6599C212.75 63.612 201.965 53.9199 189.18 47.6784ZM157.35 168.048C146.964 168.338 136.733 165.479 128 159.848V123.468L169.37 102.778C170.803 102.087 172.084 101.118 173.138 99.9277C174.193 98.7371 175 97.3488 175.514 95.8434C176.027 94.3381 176.236 92.7456 176.128 91.1588C176.021 89.572 175.599 88.0223 174.887 86.6C174.175 85.1777 173.188 83.9111 171.982 82.8738C170.776 81.8365 169.376 81.0493 167.864 80.5578C166.351 80.0664 164.756 79.8805 163.171 80.0111C161.585 80.1417 160.042 80.586 158.63 81.3184L128 96.6284V76.0484C128 72.8658 126.736 69.8135 124.486 67.5631C122.235 65.3127 119.183 64.0484 116 64.0484C112.818 64.0484 109.765 65.3127 107.515 67.5631C105.265 69.8135 104 72.8658 104 76.0484V120.628L73.3703 105.318C70.531 103.948 67.2666 103.751 64.2828 104.768C61.299 105.786 58.8354 107.936 57.4245 110.756C56.0137 113.575 55.7688 116.836 56.7429 119.834C57.717 122.832 59.8318 125.327 62.6303 126.778L104 147.468V159.848C95.27 165.484 85.0373 168.343 74.6503 168.048C62.905 167.751 51.6067 163.484 42.5964 155.944C33.586 148.404 27.3947 138.034 25.0313 126.526C22.6678 115.017 24.2715 103.047 29.581 92.5657C34.8905 82.0848 43.5929 73.7109 54.2703 68.8084C58.8114 66.7159 62.4041 62.9984 64.3403 58.3884C68.6023 48.2026 75.7803 39.504 84.972 33.3861C94.1636 27.2683 104.959 24.0042 116 24.0042C127.042 24.0042 137.837 27.2683 147.029 33.3861C156.22 39.504 163.398 48.2026 167.66 58.3884C169.596 62.9984 173.189 66.7159 177.73 68.8084C188.408 73.7109 197.11 82.0848 202.42 92.5657C207.729 103.047 209.333 115.017 206.969 126.526C204.606 138.034 198.415 148.404 189.404 155.944C180.394 163.484 169.096 167.751 157.35 168.048Z" fill="black"></path>
</svg>
