<?xml version="1.0" encoding="UTF-8"?>
<svg xmlns="http://www.w3.org/2000/svg" width="49" height="50" viewBox="0 0 49 50" fill="none">
  <g clip-path="url(#clip0_1203_16794)">
    <path d="M24.5066 0C10.9739 0 0 11.1978 0 25.0067C0 38.8156 10.9739 50.0135 24.5066 50.0135C38.0393 50.0135 49.0132 38.8156 49.0132 25.0067C49.0132 11.1978 38.0393 0 24.5066 0ZM34.2406 21.3997C34.2406 21.5882 34.2406 21.7766 34.2406 21.965C34.2406 27.7389 29.9276 34.4011 22.0533 34.4011C19.6396 34.4011 17.3841 33.6743 15.4848 32.4361C15.8145 32.4764 16.1575 32.5034 16.5004 32.5034C18.5052 32.5034 20.3518 31.8035 21.8159 30.6326C19.9429 30.5922 18.3602 29.3271 17.8194 27.5908C18.0832 27.6447 18.347 27.6716 18.624 27.6716C19.0196 27.6716 19.389 27.6178 19.7583 27.5236C17.793 27.1198 16.3157 25.3567 16.3157 23.2301C16.3157 23.2167 16.3157 23.1898 16.3157 23.1763C16.8961 23.4993 17.5556 23.7012 18.2546 23.7281C17.1071 22.9475 16.3421 21.6016 16.3421 20.0942C16.3421 19.2867 16.5532 18.5464 16.9225 17.9004C19.0328 20.5518 22.1984 22.288 25.7596 22.463C25.6805 22.14 25.6541 21.8035 25.6541 21.467C25.6541 19.0579 27.5666 17.0929 29.9408 17.0929C31.1674 17.0929 32.2886 17.6178 33.0668 18.4791C34.0428 18.2773 34.9661 17.9139 35.7838 17.4159C35.4673 18.4388 34.7814 19.3001 33.8977 19.8385C34.7682 19.7308 35.586 19.502 36.3642 19.1521C35.7838 20.0269 35.0584 20.7941 34.2275 21.4132L34.2406 21.3997Z" fill="white"></path>
  </g>
  <defs>
    <clipPath id="clip0_1203_16794">
      <rect width="49" height="50" fill="white"></rect>
    </clipPath>
  </defs>
</svg>
